<svg xmlns="http://www.w3.org/2000/svg" width="1200" height="700" viewBox="0 0 1200 700" role="img" aria-labelledby="title desc">
  <title id="title">IoT Energy Optimisation System preview</title>
  <desc id="desc">A mock industrial analytics dashboard with device status, trends, and alerts.</desc>
  <defs>
    <linearGradient id="bg2" x1="0" x2="1" y1="0" y2="1">
      <stop offset="0%" stop-color="#111827"/>
      <stop offset="100%" stop-color="#1f2937"/>
    </linearGradient>
  </defs>
  <rect width="1200" height="700" fill="url(#bg2)"/>
  <rect x="55" y="65" width="1090" height="570" rx="18" fill="#0b1220" opacity="0.92"/>
  <rect x="85" y="100" width="260" height="500" rx="12" fill="#1f2937"/>
  <rect x="365" y="100" width="750" height="220" rx="12" fill="#111827" stroke="#334155" stroke-width="2"/>
  <polyline points="390,290 470,240 550,250 630,180 710,210 790,150 870,170 950,130 1030,145 1090,120" fill="none" stroke="#22d3ee" stroke-width="5"/>
  <rect x="365" y="340" width="235" height="120" rx="12" fill="#1e3a8a"/>
  <rect x="620" y="340" width="235" height="120" rx="12" fill="#14532d"/>
  <rect x="875" y="340" width="240" height="120" rx="12" fill="#7f1d1d"/>
  <rect x="365" y="480" width="750" height="120" rx="12" fill="#1f2937"/>
  <circle cx="130" cy="150" r="20" fill="#22c55e"/>
  <circle cx="130" cy="215" r="20" fill="#f59e0b"/>
  <circle cx="130" cy="280" r="20" fill="#ef4444"/>
  <text x="170" y="157" fill="#d1d5db" font-family="Poppins, Arial, sans-serif" font-size="20">Devices Online</text>
  <text x="170" y="222" fill="#d1d5db" font-family="Poppins, Arial, sans-serif" font-size="20">Pending Alerts</text>
  <text x="170" y="287" fill="#d1d5db" font-family="Poppins, Arial, sans-serif" font-size="20">Critical Nodes</text>
  <text x="90" y="50" fill="#e5e7eb" font-family="Poppins, Arial, sans-serif" font-size="34" font-weight="700">IoT Energy Optimisation System</text>
</svg>
